<?xml version="1.0" encoding="UTF-8" standalone="no"?>
<!-- Created with Inkscape (http://www.inkscape.org/) -->

<svg
   width="120"
   height="120"
   viewBox="0 0 120 120"
   version="1.1"
   id="svg1"
   xml:space="preserve"
   inkscape:version="1.3.2 (091e20ef0f, 2023-11-25)"
   sodipodi:docname="moon.svg"
   xmlns:inkscape="http://www.inkscape.org/namespaces/inkscape"
   xmlns:sodipodi="http://sodipodi.sourceforge.net/DTD/sodipodi-0.dtd"
   xmlns="http://www.w3.org/2000/svg"
   xmlns:svg="http://www.w3.org/2000/svg"><sodipodi:namedview
     id="namedview1"
     pagecolor="#ffffff"
     bordercolor="#000000"
     borderopacity="0.25"
     inkscape:showpageshadow="2"
     inkscape:pageopacity="0.0"
     inkscape:pagecheckerboard="0"
     inkscape:deskcolor="#d1d1d1"
     inkscape:document-units="px"
     inkscape:zoom="2.9757414"
     inkscape:cx="28.22826"
     inkscape:cy="96.782604"
     inkscape:window-width="1920"
     inkscape:window-height="1048"
     inkscape:window-x="0"
     inkscape:window-y="0"
     inkscape:window-maximized="1"
     inkscape:current-layer="layer1" /><defs
     id="defs1" /><g
     inkscape:label="Layer 1"
     inkscape:groupmode="layer"
     id="layer1"><path
       style="fill:#000000;stroke-width:0.90164"
       d="M 63.931283,119.1648 C 56.016175,118.58223 49.228643,116.7632 42.335564,113.37727 27.413996,106.04767 16.166516,92.787646 11.587024,77.126813 9.955541,71.54751 9.213781,66.339791 9.209365,60.433823 9.203065,52.028329 10.913814,44.012047 14.331349,36.43286 17.527928,29.343698 21.611588,23.568847 27.380147,17.980068 31.790081,13.707566 36.888565,10.165499 42.566601,7.4295807 49.495937,4.0907456 56.473891,2.2807934 64.710448,1.6858906 c 3.160188,-0.2282503 8.878112,0.047424 11.362818,0.5479182 0.825263,0.1662171 1.625361,0.8149646 1.988527,1.6123758 0.488294,1.0721492 0.260645,1.6123038 -1.74783,4.1471201 -6.423397,8.1067443 -10.463108,17.7942443 -11.561005,27.7240783 -0.269056,2.433462 -0.227514,9.770837 0.06924,12.22814 0.549447,4.549856 1.434677,8.23237 2.955129,12.293176 4.685179,12.51314 13.551525,22.602483 25.358679,28.856551 4.657854,2.467209 10.538084,4.569415 14.958314,5.347668 3.64593,0.641931 4.10026,0.820515 4.671,1.836015 0.40549,0.721463 0.38947,1.527094 -0.0451,2.268648 -0.77965,1.33036 -4.43407,4.985799 -7.51767,7.519779 -8.778302,7.21359 -19.43993,11.68114 -30.800633,12.90639 -2.246944,0.24233 -8.278641,0.35239 -10.470612,0.19105 z"
       id="path1" /></g></svg>
