<?xml version="1.0" encoding="UTF-8" standalone="no"?>
<!-- Created with Inkscape (http://www.inkscape.org/) -->

<svg
   version="1.1"
   id="svg1"
   width="512"
   height="512"
   viewBox="0 0 512 512"
   sodipodi:docname="spain.svg"
   inkscape:version="1.3.2 (091e20ef0f, 2023-11-25)"
   xmlns:inkscape="http://www.inkscape.org/namespaces/inkscape"
   xmlns:sodipodi="http://sodipodi.sourceforge.net/DTD/sodipodi-0.dtd"
   xmlns="http://www.w3.org/2000/svg"
   xmlns:svg="http://www.w3.org/2000/svg">
  <defs
     id="defs1" />
  <sodipodi:namedview
     id="namedview1"
     pagecolor="#ffffff"
     bordercolor="#000000"
     borderopacity="0.25"
     inkscape:showpageshadow="2"
     inkscape:pageopacity="0.0"
     inkscape:pagecheckerboard="0"
     inkscape:deskcolor="#d1d1d1"
     inkscape:zoom="1.0489776"
     inkscape:cx="257.39349"
     inkscape:cy="184.94199"
     inkscape:window-width="1920"
     inkscape:window-height="1048"
     inkscape:window-x="0"
     inkscape:window-y="0"
     inkscape:window-maximized="1"
     inkscape:current-layer="g2" />
  <g
     inkscape:groupmode="layer"
     inkscape:label="Image"
     id="g1">
    <g
       id="g2"
       transform="translate(0.90283305,-0.98553871)">
      <path
         style="fill:#fbcb23;fill-opacity:1"
         d="M 36.258114,388.17158 C 18.604328,358.30916 6.9561907,324.57975 1.8144856,288.43349 c -1.67302531,-11.76139 -1.67302531,-51.23861 0,-63 5.1574074,-36.25665 16.7257414,-69.76706 34.4138134,-99.68773 4.346675,-7.35272 5.405137,-8.54363 6.888053,-7.75 2.369127,1.26792 423.398168,1.26792 425.767298,0 1.48291,-0.79363 2.54138,0.39728 6.88805,7.75 38.83946,65.69979 46.76407,144.86612 21.64724,216.25441 -7.01832,19.9478 -26.49153,57.10583 -28.64316,54.9542 -1.39067,-1.39067 -424.392455,-1.20385 -425.782931,0.18666 -0.650789,0.65079 -3.332437,-3.21422 -6.734735,-8.96941 z M 74.5,75.933489 c 0.995486,-1.1 2.034975,-2 2.309975,-2 0.275,0 -0.314489,0.9 -1.309975,2 -0.995486,1.1 -2.034975,2 -2.309975,2 -0.275,0 0.314489,-0.9 1.309975,-2 z"
         id="path3"
         sodipodi:nodetypes="sssssssssssssssss" />
      <path
         style="fill:#e52f1d;fill-opacity:1"
         d="M 232.5,511.8771 C 170.34404,505.45336 115.3983,478.99225 72.474665,434.81112 60.359253,422.34077 41.621299,398.56959 42.300536,396.53188 42.564962,395.7386 101.92667,395.43349 256,395.43349 c 154.07333,0 213.43504,0.30511 213.69946,1.09839 0.66396,1.99188 -17.94272,25.68206 -29.67752,37.78567 -21.73366,22.41672 -43.25207,38.16961 -70.52194,51.62667 -25.70029,12.68251 -48.70711,19.99966 -75.69143,24.07308 -15.41062,2.32631 -47.4039,3.29683 -61.30857,1.8598 z M 43.019096,117.96645 C 38.734591,115.25726 73.562628,75.356742 96,57.269221 142.96187,19.411672 204.15441,-0.91506299 264.5,1.297444 c 27.34582,1.0026053 55.09201,6.3251002 79.38491,15.228243 12.55676,4.601948 37.27349,16.771432 48.52709,23.892709 27.36566,17.316993 55.46253,44.168997 73.59665,70.335854 3.57915,5.16458 4.11617,6.48793 2.93588,7.23469 -1.96826,1.24528 -423.955725,1.22301 -425.925434,-0.0225 z"
         id="path2" />
    </g>
  </g>
</svg>
