<?xml version="1.0" encoding="UTF-8" standalone="no"?>
<!-- Created with Inkscape (http://www.inkscape.org/) -->

<svg
   width="120"
   height="120"
   viewBox="0 0 120 120"
   version="1.1"
   id="svg1"
   xml:space="preserve"
   inkscape:version="1.3.2 (091e20ef0f, 2023-11-25)"
   sodipodi:docname="sun.svg"
   xmlns:inkscape="http://www.inkscape.org/namespaces/inkscape"
   xmlns:sodipodi="http://sodipodi.sourceforge.net/DTD/sodipodi-0.dtd"
   xmlns="http://www.w3.org/2000/svg"
   xmlns:svg="http://www.w3.org/2000/svg"><sodipodi:namedview
     id="namedview1"
     pagecolor="#ffffff"
     bordercolor="#000000"
     borderopacity="0.25"
     inkscape:showpageshadow="2"
     inkscape:pageopacity="0.0"
     inkscape:pagecheckerboard="0"
     inkscape:deskcolor="#d1d1d1"
     inkscape:document-units="px"
     inkscape:zoom="2.9757414"
     inkscape:cx="95.438401"
     inkscape:cy="93.758147"
     inkscape:window-width="1920"
     inkscape:window-height="1048"
     inkscape:window-x="0"
     inkscape:window-y="0"
     inkscape:window-maximized="1"
     inkscape:current-layer="layer1" /><defs
     id="defs1" /><g
     inkscape:label="Layer 1"
     inkscape:groupmode="layer"
     id="layer1"><path
       style="fill:#ffffff;stroke-width:0.528933;fill-opacity:1"
       d="m 57.351508,108.90771 c 0,-10.049726 0,-10.049726 2.644666,-10.049726 2.644666,0 2.644666,0 2.644666,10.049726 0,10.04974 0,10.04974 -2.644666,10.04974 -2.644666,0 -2.644666,0 -2.644666,-10.04974 z m -26.843355,2.12154 c -0.945468,-0.57647 -1.718361,-1.23014 -1.71754,-1.45259 0.0016,-0.37341 8.831971,-16.547276 9.284289,-17.004835 0.328435,-0.332244 3.324074,1.051038 3.975212,1.83561 0.470328,0.566709 -0.409643,2.57491 -4.031083,9.199425 -2.548015,4.66095 -4.893552,8.47357 -5.212298,8.47247 -0.318751,-0.001 -1.353112,-0.47362 -2.29858,-1.05008 z m 52.328533,-7.38536 c -2.671229,-4.640592 -4.856785,-8.650783 -4.856785,-8.911537 0,-0.517439 4.10972,-2.521578 4.454135,-2.172095 0.256491,0.260261 5.789808,9.617492 8.161869,13.802302 1.705381,3.00863 1.705381,3.00863 -0.288765,4.36369 -1.096777,0.74529 -2.133534,1.35507 -2.303903,1.35507 -0.170375,0 -2.495322,-3.79686 -5.166551,-8.43743 z M 56.029175,92.540772 C 43.269469,91.007828 31.763338,80.713271 28.52923,67.9365 27.594282,64.242865 27.488707,57.245581 28.307839,53.263535 c 0.317121,-1.541613 1.54027,-4.826103 2.718108,-7.298866 2.82527,-5.931412 8.84702,-12.116692 14.554905,-14.95017 12.800071,-6.354135 27.649689,-3.970953 37.665493,6.044853 4.030905,4.030903 7.330101,9.740561 8.704605,15.064396 1.052885,4.078079 1.079863,12.193775 0.05335,16.056114 -4.235982,15.938459 -19.582257,26.330339 -35.975143,24.36091 z m 46.059085,-6.910221 c -4.631567,-2.618362 -8.516946,-4.856563 -8.634166,-4.973786 -0.201585,-0.201587 0.842955,-2.372207 1.895167,-3.938262 0.379344,-0.564604 2.357018,0.316948 9.271829,4.132941 8.78964,4.850629 8.78964,4.850629 8.0404,6.271486 -1.92305,3.646857 -1.33594,3.729725 -10.57323,-1.492379 z M 9.0927875,88.928015 C 7.3800068,86.963436 7.0774941,85.819999 8.0455164,84.969549 9.2518383,83.909746 23.433594,75.05485 23.916266,75.060066 c 0.20731,0.0021 0.910897,0.939232 1.563526,2.082208 1.186598,2.078131 1.186598,2.078131 -0.264466,3.09729 -1.171169,0.82257 -12.409365,7.879236 -14.735939,9.252961 -0.324761,0.191759 -0.9487322,-0.06228 -1.3865995,-0.56451 z M 0.7556647,58.659065 c 0,-2.644666 0,-2.644666 10.3141963,-2.644666 10.314196,0 10.314196,0 10.314196,2.644666 0,2.644666 0,2.644666 -10.314196,2.644666 -10.3141963,0 -10.3141963,0 -10.3141963,-2.644666 z m 98.4848093,0.132233 c 0.161223,-2.512432 0.161223,-2.512432 10.210946,-2.512432 10.04974,0 10.04974,0 10.21095,2.512432 0.16122,2.512433 0.16122,2.512433 -10.21095,2.512433 -10.372158,0 -10.372158,0 -10.210946,-2.512433 z m -5.52481,-18.162171 c -0.509103,-0.894475 -0.92241,-1.904555 -0.918477,-2.244621 0.0076,-0.629088 15.702303,-9.874632 16.762953,-9.874632 0.81157,0 2.94995,3.764873 2.43175,4.281431 -0.81959,0.81702 -16.107908,9.470795 -16.725853,9.467485 -0.34361,-0.0021 -1.041282,-0.735186 -1.550373,-1.629663 z M 21.912989,38.73954 C 20.022053,37.683825 16.265084,35.532729 13.564171,33.959328 8.6534144,31.0986 8.6534144,31.0986 9.826804,29.010838 c 0.645362,-1.14827 1.384371,-2.087764 1.642247,-2.087764 0.357893,0 16.338846,8.630633 17.241226,9.311253 0.373608,0.281795 -2.249123,4.440757 -2.795453,4.432854 -0.310072,-0.0045 -2.110899,-0.871925 -4.001835,-1.927641 z M 80.106514,26.851123 c -0.721302,-0.281973 -1.708836,-0.872298 -2.194518,-1.311834 -0.815112,-0.73767 -0.571777,-1.360388 3.162724,-8.093684 5.743135,-10.3548466 5.379187,-9.9069696 7.377755,-9.0791346 0.911796,0.3776797 1.876884,0.9586069 2.144647,1.2909499 0.320717,0.3980757 -0.891551,3.1489567 -3.552762,8.0619457 -5.279049,9.745907 -5.299148,9.772362 -6.937846,9.131757 z M 34.965431,18.09364 C 29.769678,9.7956139 29.769678,9.7956139 30.998432,8.8472873 c 2.121186,-1.6370836 3.214485,-1.7562464 4.114555,-0.4484604 2.260158,3.2839551 9.544126,15.0228851 9.544126,15.3814171 0,0.465968 -3.313707,2.614559 -4.029427,2.61266 -0.256575,-6.88e-4 -2.804589,-3.735349 -5.662255,-8.299264 z m 22.506642,-6.906326 c 0.143902,-9.9174971 0.143902,-9.9174971 2.788567,-9.9174971 2.644666,0 2.644666,0 2.788573,9.9174971 l 0.143907,9.917496 h -2.93248 -2.932474 z"
       id="path1" /></g></svg>
