<?xml version="1.0" encoding="UTF-8" standalone="no"?>
<!-- Created with Inkscape (http://www.inkscape.org/) -->

<svg
   version="1.1"
   id="svg1"
   width="2048"
   height="2048"
   viewBox="0 0 2048 2048"
   sodipodi:docname="uk.svg"
   inkscape:version="1.3.2 (091e20ef0f, 2023-11-25)"
   xmlns:inkscape="http://www.inkscape.org/namespaces/inkscape"
   xmlns:sodipodi="http://sodipodi.sourceforge.net/DTD/sodipodi-0.dtd"
   xmlns="http://www.w3.org/2000/svg"
   xmlns:svg="http://www.w3.org/2000/svg">
  <defs
     id="defs1" />
  <sodipodi:namedview
     id="namedview1"
     pagecolor="#ffffff"
     bordercolor="#000000"
     borderopacity="0.25"
     inkscape:showpageshadow="2"
     inkscape:pageopacity="0.0"
     inkscape:pagecheckerboard="0"
     inkscape:deskcolor="#d1d1d1"
     inkscape:zoom="0.40982094"
     inkscape:cx="958.95539"
     inkscape:cy="1051.6788"
     inkscape:window-width="1920"
     inkscape:window-height="1048"
     inkscape:window-x="0"
     inkscape:window-y="0"
     inkscape:window-maximized="1"
     inkscape:current-layer="g2" />
  <g
     inkscape:groupmode="layer"
     inkscape:label="Image"
     id="g1">
    <g
       id="g2">
      <ellipse
         style="fill:#ffffff;fill-opacity:1;stroke-width:0.505202"
         id="path1"
         cx="1024.2273"
         cy="1023.8049"
         rx="1022.5091"
         ry="1023.3309" />
      <path
         style="fill:#0051b3"
         d="M 738,2007.4023 C 625.64408,1974.6266 518.81733,1922.2902 423.99326,1853.5645 403.59173,1838.7781 402.07978,1837.5684 402.039,1835.9989 401.99278,1834.2199 753.92912,1482 755.75292,1482 c 0.99856,0 1.20001,53.3891 0.99894,264.7363 -0.22302,234.4253 -0.4236,264.7621 -1.75186,264.9619 -0.825,0.1241 -8.475,-1.8091 -17,-4.2959 z m 553.7018,3.9662 c -0.386,-0.386 -0.7018,-119.6518 -0.7018,-265.0352 0,-210.9197 0.2528,-264.3333 1.2511,-264.3333 1.814,0 353.7538,352.2165 353.723,354.0011 -0.014,0.8244 -6.1399,5.9989 -13.6125,11.4989 -96.8117,71.2559 -201.8041,123.8406 -314.3616,157.4456 -22.2872,6.6541 -25.3251,7.396 -26.2982,6.4229 z M 205.53214,1639.2089 C 142.33615,1553.8651 97.586017,1471.6621 62.517095,1376.5 50.727323,1344.5076 35.392681,1295.025 36.430153,1292.3214 37.160846,1290.4173 566,1290.347 566,1292.2511 c 0,1.8239 -352.22436,353.7565 -354.00106,353.7078 -0.82442,-0.023 -3.73448,-3.0601 -6.4668,-6.75 z m 1452.71676,-169.46 C 1561.312,1372.8109 1482,1292.9359 1482,1292.2489 c 0,-1.9021 528.8399,-1.8297 529.5698,0.072 1.2046,3.1389 -18.6395,65.3651 -31.3093,98.1786 -33.7045,87.2909 -76.8629,165.9165 -132.7605,241.8616 -5.5,7.4726 -10.6755,13.5982 -11.5011,13.6125 -0.8255,0.014 -80.813,-79.2871 -177.75,-176.2252 z M 36.430153,755.67858 C 35.230209,752.55157 54.688294,691.43258 67.527492,658 98.725206,576.76284 141.30625,497.6165 190.4614,429.5 207.82399,405.43988 210.45697,402.08335 212.00106,402.04108 213.77782,401.99245 566,753.92712 566,755.75106 c 0,1.90215 -528.839883,1.82977 -529.569847,-0.0725 z M 1482,755.74894 c 0,-1.81407 352.2165,-353.75388 354.0011,-353.72299 0.8244,0.0143 5.9989,6.13986 11.4989,13.61242 55.92,75.97555 99.6774,155.72521 132.98,242.36163 12.5391,32.6204 32.2629,94.62152 31.0809,97.70179 -0.7227,1.88342 -529.5609,1.9305 -529.5609,0.0471 z m -903.75106,-366 C 481.31202,292.81086 402.01168,212.82336 402.02595,211.99894 402.04022,211.17452 408.16581,206 415.63837,200.5 491.58959,144.59793 569.78818,101.666 657.23578,67.860212 690.05423,55.173148 752.55104,35.230005 755.70179,36.439062 757.58521,37.161795 757.63229,566 755.74894,566 c -0.68809,0 -80.56309,-79.31298 -177.5,-176.25106 z M 1291,301.46862 c 0,-218.328063 0.2308,-264.619956 1.3214,-265.038467 3.127,-1.199944 64.246,18.258141 97.6786,31.097339 89.5375,34.385328 167.8128,77.731888 249.2089,138.004648 3.6899,2.73232 6.7274,5.64334 6.75,6.46892 C 1646.0075,213.77782 1294.0729,566 1292.2489,566 1291.2535,566 1291,512.30739 1291,301.46862 Z"
         id="path3" />
      <path
         style="fill:#d70026"
         d="m 976.5,2046.9009 c -29.51846,-1.3848 -79.93604,-6.1251 -84.25,-7.9212 L 890,2038.0429 V 1598.0214 1158 H 450.57143 c -379.133517,0 -439.624236,-0.1957 -440.8545627,-1.426 -1.8766834,-1.8767 -4.9340623,-29.0435 -7.8861792,-70.074 -1.7088677,-23.751 -1.7088677,-101.24903 0,-125 C 4.782805,920.46954 7.8401839,893.30267 9.7168673,891.42599 10.947194,890.19566 71.437913,890 450.57143,890 H 890 V 449.97856 9.9571224 l 2.25,-0.9460948 c 2.44833,-1.0294912 32.18686,-4.3490828 53.75,-5.9998944 51.35779,-3.9318042 104.9779,-3.9289762 156,0.00823 22.1291,1.7076268 52.374,5.1187172 54.25,6.1184292 1.6626,0.8860006 1.75,22.9052146 1.75,440.8973876 V 890 h 439.4286 c 379.1335,0 439.6242,0.19566 440.8545,1.42599 1.8405,1.8405 4.8117,28.21581 7.8938,70.07401 1.647,22.3674 1.647,102.6326 0,125 -3.0821,41.8582 -6.0533,68.2335 -7.8938,70.074 -1.2303,1.2303 -61.721,1.426 -440.8545,1.426 H 1158 v 439.9648 c 0,417.997 -0.087,440.0108 -1.75,440.8847 -3.6705,1.9294 -53.495,6.5253 -88.25,8.1403 -24.3981,1.1337 -66.3058,1.093 -91.5,-0.089 z M 352.90235,1797.1771 C 331.00594,1778.3137 301,1749.6471 301,1747.5915 301,1746.0657 754.22074,1293 755.74698,1293 c 0.99094,0 1.24446,12.9156 1.21207,61.75 l -0.041,61.75 -194.70905,195.2889 c -107.08998,107.4089 -195.42799,195.2714 -196.3067,195.25 -0.87871,-0.021 -6.72871,-4.4592 -13,-9.8618 z M 1519.7552,1520.253 C 1395.0398,1395.5422 1293,1292.9422 1293,1292.253 c 0,-0.9906 13.0351,-1.253 62.242,-1.253 h 62.2421 l 194.7579,194.7504 C 1719.3589,1592.8631 1807,1681.2195 1807,1682.098 c 0,3.6484 -56.0067,64.902 -59.3426,64.902 -0.6308,0 -103.1868,-102.0361 -227.9022,-226.747 z M 436.01084,561.51084 C 242.49789,367.99599 240.53864,365.99742 242.0118,363.61842 c 4.5921,-7.4157 53.94064,-60.86012 57.37619,-62.13835 1.543,-0.57408 43.3418,40.75107 228.75,226.15792 C 652.9121,652.41119 755,755.06122 755,755.74917 755,756.73677 742.00489,757 693.24904,757 H 631.49808 Z M 1291,693.24904 V 631.49808 L 1486.251,436.24904 C 1593.639,328.86207 1682.0663,241 1682.7561,241 c 2.7652,0 61.2781,53.56801 63.6764,58.29518 0.7938,1.56445 -32.85,35.62094 -225.9991,228.77145 C 1395.6209,652.87998 1292.9388,755 1292.2508,755 1291.2632,755 1291,742.00489 1291,693.24904 Z"
         id="path2" />
    </g>
  </g>
</svg>
